<?xml version="1.0" encoding="utf-8"?>
<!-- Generator: Adobe Illustrator 22.0.1, SVG Export Plug-In . SVG Version: 6.00 Build 0)  -->
<svg version="1.1" id="menu_logo" xmlns="http://www.w3.org/2000/svg" xmlns:xlink="http://www.w3.org/1999/xlink" x="0px" y="0px"
	 viewBox="0 0 500 280.7" style="enable-background:new 0 0 500 280.7;" xml:space="preserve">
<style type="text/css">
	.st0{fill:#FECD18;}
</style>
<path id="theX" class="st0" d="M394.3,81.4l29.3-41.8L395.5,0.2h26.2l14.4,22.3l15.1-22.3h25.2L449,38.7l30.1,42.8h-26.4l-16.5-25.2
	l-16.7,25.2L394.3,81.4L394.3,81.4z"/>
<path id="theM" d="M0,280.6V0.2h84.7l50.9,191.2L185.9,0.2h84.9v280.3h-52.6V59.9l-55.6,220.7H108L52.6,59.9v220.7H0z"/>
<path id="theA" d="M500,280.9h-61.6L414,217.2H301.9l-23.1,63.7h-60L328,0.6h59.9L500,280.9z M395.8,170L357.2,66l-37.9,104H395.8z"
	/>
</svg>
