<?xml version="1.0" standalone="no"?>
<!DOCTYPE svg PUBLIC "-//W3C//DTD SVG 20010904//EN"
 "http://www.w3.org/TR/2001/REC-SVG-20010904/DTD/svg10.dtd">
<svg version="1.0" xmlns="http://www.w3.org/2000/svg"
 width="1000.000000pt" height="1000.000000pt" viewBox="0 0 1000.000000 1000.000000"
 preserveAspectRatio="xMidYMid meet">
<metadata>
Created by potrace 1.11, written by Peter Selinger 2001-2013
</metadata>
<g transform="translate(0.000000,1000.000000) scale(0.100000,-0.100000)"
fill="#000000" stroke="none">
<path d="M10 4993 l0 -2803 525 0 525 0 0 83 c0 45 1 1035 1 2201 0 1165 1
2117 3 2115 2 -2 7 -17 9 -34 3 -16 8 -39 11 -50 13 -50 120 -473 139 -550 9
-33 32 -125 52 -205 20 -80 38 -152 40 -160 1 -8 8 -35 15 -60 7 -25 14 -56
16 -70 3 -14 8 -34 11 -45 4 -11 8 -24 9 -30 1 -5 41 -165 89 -354 48 -189 88
-351 90 -360 2 -9 11 -43 20 -76 9 -33 18 -71 21 -85 3 -14 9 -38 14 -55 5
-16 11 -41 14 -55 3 -14 19 -79 36 -145 27 -106 35 -140 44 -180 1 -5 5 -19 9
-30 3 -11 8 -31 11 -45 3 -14 24 -97 46 -185 23 -88 44 -173 47 -190 3 -16 9
-38 14 -47 5 -10 8 -18 5 -18 -3 0 0 -15 5 -32 6 -18 12 -40 14 -48 9 -39 26
-106 29 -115 2 -5 6 -23 10 -40 4 -16 14 -57 23 -90 8 -33 19 -77 24 -97 5
-21 13 -55 19 -75 5 -21 14 -58 20 -83 6 -25 15 -61 20 -80 5 -19 14 -55 20
-80 11 -49 13 -55 23 -85 3 -11 8 -31 11 -45 2 -14 9 -45 16 -70 12 -45 15
-56 30 -120 22 -92 53 -212 72 -277 l10 -33 543 0 c606 0 547 -7 560 69 3 19
8 37 10 41 2 3 6 17 9 31 2 13 16 69 30 124 15 55 28 109 31 120 3 11 21 83
40 160 20 77 37 147 39 155 2 8 12 44 21 80 10 36 19 74 21 85 2 11 21 90 44
175 22 85 42 166 45 180 3 14 14 56 24 94 11 37 20 71 19 75 0 3 1 8 2 11 1 3
3 12 5 21 1 9 10 41 18 70 9 30 18 65 21 79 3 14 10 43 16 65 6 22 13 49 15
60 3 11 7 29 9 40 3 11 19 74 36 140 31 116 36 135 44 173 2 9 9 37 16 62 7
25 13 52 15 60 2 8 13 53 25 100 12 47 23 92 25 100 2 8 25 98 50 200 26 102
48 192 50 200 3 8 32 123 65 255 34 132 63 247 65 255 2 8 45 179 95 380 51
201 94 376 96 389 3 14 8 29 12 35 3 6 7 17 7 26 3 29 58 245 66 260 5 9 9
-76 9 -200 -1 -118 -1 -1105 0 -2193 l0 -1977 607 2 608 3 23 65 c12 36 25 72
29 80 3 8 7 20 8 25 3 13 134 373 145 400 5 11 20 54 35 95 15 41 31 86 36
100 4 14 14 39 20 55 7 17 13 35 15 40 3 14 69 194 82 225 6 14 22 60 37 102
l27 77 1120 -2 1121 -2 94 -245 c51 -135 106 -279 122 -320 16 -41 48 -124 71
-185 23 -60 48 -123 55 -140 11 -26 27 -70 30 -85 1 -3 8 -21 16 -40 9 -19 33
-83 55 -142 l39 -108 617 0 617 0 -15 38 c-18 45 -28 69 -42 102 -29 68 -72
186 -71 194 0 5 -3 12 -8 15 -5 3 -17 29 -27 56 -10 28 -24 64 -31 80 -7 17
-25 62 -40 100 -15 39 -34 84 -41 100 -7 17 -52 129 -99 250 -48 121 -93 234
-100 250 -31 73 -59 151 -57 158 1 4 -2 7 -8 7 -5 0 -10 6 -10 14 0 12 -30 89
-72 186 -6 14 -14 34 -18 45 -18 46 -52 131 -60 150 -16 37 -113 280 -126 315
-16 45 -161 408 -173 435 -5 11 -84 209 -176 440 -91 231 -172 434 -180 450
-7 17 -26 62 -40 100 -15 39 -33 84 -40 100 -7 17 -47 115 -88 220 -62 157
-73 193 -64 212 6 13 13 23 17 23 4 0 12 11 18 25 7 14 17 31 23 38 5 7 59 86
119 177 126 191 133 200 140 200 3 0 14 -18 24 -40 11 -22 23 -40 28 -40 4 0
8 -5 8 -10 0 -6 5 -16 10 -23 21 -25 100 -149 100 -157 0 -5 4 -10 8 -12 5 -1
39 -51 77 -110 l70 -107 263 0 c203 0 261 3 255 12 -4 7 -28 41 -53 77 -25 36
-68 97 -95 135 -26 39 -51 72 -55 75 -4 3 -15 20 -24 38 -9 17 -21 32 -26 32
-6 0 -10 6 -10 13 0 7 -9 23 -20 35 -11 12 -20 25 -20 29 0 5 -11 20 -25 35
-14 15 -25 30 -25 33 0 3 -24 38 -53 78 -29 40 -82 115 -119 167 l-65 95 21
31 c11 17 46 66 76 109 30 43 62 87 70 99 8 11 18 23 23 24 4 2 7 8 7 14 0 6
16 30 35 54 19 23 35 47 35 52 0 6 4 12 8 14 4 2 28 32 52 68 25 36 50 70 55
76 6 6 16 20 22 30 42 64 128 180 137 186 6 4 9 8 6 9 -20 7 -510 4 -510 -3 0
-4 -7 -16 -16 -26 -8 -10 -72 -103 -142 -207 -70 -104 -132 -190 -138 -192 -7
-2 -18 10 -25 27 -8 16 -16 30 -19 30 -3 0 -16 20 -30 45 -14 25 -28 45 -31
45 -4 0 -12 14 -19 30 -7 17 -16 30 -21 30 -5 0 -9 6 -10 13 0 6 -30 57 -67
112 l-67 100 -253 1 c-139 0 -255 -3 -257 -7 -4 -5 26 -50 131 -194 26 -36
163 -229 176 -249 7 -10 23 -31 36 -46 12 -15 22 -32 22 -38 0 -6 4 -12 8 -14
12 -5 172 -233 172 -246 0 -6 -3 -12 -8 -14 -7 -3 -73 -96 -159 -225 -18 -26
-40 -57 -49 -68 -9 -11 -20 -27 -24 -35 -5 -8 -11 -12 -13 -10 -2 3 -106 259
-230 570 l-225 565 -596 1 c-432 1 -598 -1 -604 -10 -5 -6 -30 -67 -56 -136
-27 -69 -57 -144 -67 -167 -10 -24 -19 -47 -19 -52 0 -5 -16 -46 -35 -90 -19
-45 -35 -83 -35 -86 -1 -8 -11 -36 -48 -125 -18 -47 -35 -89 -36 -95 -2 -5 -8
-23 -14 -38 -7 -16 -12 -31 -12 -33 0 -3 -8 -24 -18 -47 -11 -23 -29 -69 -41
-102 -25 -67 -36 -94 -51 -127 -26 -61 -100 -261 -100 -272 0 -7 -5 -17 -12
-24 -6 -6 -13 -17 -14 -24 -2 -7 -21 -60 -44 -118 -23 -58 -43 -109 -44 -115
-2 -5 -8 -21 -13 -35 -6 -14 -32 -78 -57 -143 -104 -267 -146 -377 -146 -387
0 -5 -4 -10 -10 -10 -5 0 -9 -3 -8 -7 3 -10 -10 -51 -27 -88 -8 -16 -28 -68
-46 -115 -17 -47 -37 -98 -44 -115 -7 -16 -27 -68 -45 -115 -18 -47 -37 -96
-43 -110 -5 -14 -11 -29 -13 -35 -1 -5 -11 -30 -22 -55 l-20 -45 1 1463 c1
804 0 1463 -3 1463 -3 1 -386 3 -851 3 l-846 2 -27 -106 c-15 -58 -28 -112
-30 -120 -2 -8 -10 -35 -17 -60 -7 -25 -13 -49 -15 -55 -1 -5 -9 -37 -18 -70
-20 -73 -16 -56 -61 -235 -2 -8 -4 -15 -5 -15 -1 0 -3 -7 -5 -15 -1 -8 -11
-44 -20 -80 -9 -36 -19 -73 -20 -83 -2 -9 -6 -21 -9 -25 -3 -5 -7 -19 -9 -33
-3 -13 -13 -53 -22 -89 -9 -36 -19 -72 -21 -80 -2 -8 -15 -58 -29 -110 -32
-118 -34 -125 -40 -150 -3 -11 -7 -29 -10 -40 -3 -11 -7 -28 -10 -37 -27 -105
-51 -195 -88 -338 -25 -93 -62 -233 -82 -310 -20 -77 -39 -147 -41 -155 -2 -8
-17 -67 -34 -130 -17 -63 -49 -185 -71 -270 -22 -85 -47 -180 -55 -210 -8 -30
-17 -62 -19 -70 -12 -56 -37 -149 -45 -170 -5 -14 -12 -36 -14 -50 -3 -14 -10
-43 -16 -65 -6 -22 -12 -47 -14 -55 -2 -8 -16 -60 -30 -115 -15 -55 -29 -109
-31 -121 -3 -12 -11 -40 -19 -63 -9 -22 -13 -41 -11 -41 2 0 -2 -18 -10 -40
-8 -22 -14 -43 -13 -45 2 -14 -37 -145 -43 -145 -3 0 -18 44 -33 98 -14 53
-31 117 -38 142 -7 25 -13 50 -13 55 -1 6 -6 26 -13 45 -6 19 -14 46 -16 60
-3 14 -18 72 -34 130 -16 58 -29 107 -30 110 0 3 -3 12 -5 20 -8 25 -35 127
-72 270 -19 74 -39 151 -45 170 -13 43 -130 485 -137 514 -8 37 -11 51 -13 54
-3 2 -3 4 -15 47 -4 17 -21 80 -37 140 -17 61 -32 123 -34 138 -2 16 -7 34
-11 40 -4 7 -8 17 -8 22 -1 13 -15 65 -22 85 -3 8 -8 24 -10 35 -8 38 -11 50
-13 50 -1 0 -3 7 -5 15 -9 39 -35 138 -44 168 -5 18 -10 34 -11 37 0 3 -2 10
-4 17 -8 25 -46 173 -49 193 -2 11 -7 27 -10 35 -5 13 -22 74 -33 120 -2 8
-13 51 -24 95 -12 44 -27 103 -35 130 -42 164 -98 372 -103 385 -3 8 -7 22 -8
30 -1 8 -10 42 -19 75 -32 114 -57 210 -62 238 -3 15 -8 28 -12 28 -3 1 -385
3 -848 3 l-843 2 0 -2803z m7178 1377 c16 -47 35 -96 41 -110 6 -14 35 -95 66
-180 57 -156 63 -174 83 -220 6 -14 22 -57 36 -96 23 -68 245 -666 269 -729 6
-16 12 -32 12 -35 1 -3 9 -22 18 -44 9 -21 17 -41 17 -43 0 -5 16 -49 131
-358 27 -71 49 -135 49 -141 0 -7 -223 -10 -760 -10 -418 0 -760 0 -760 0 0 1
59 161 130 356 72 195 133 362 135 370 2 8 36 101 75 205 39 105 72 195 73
200 2 6 19 55 39 110 20 55 38 107 40 115 2 8 5 17 8 20 3 3 13 30 24 60 10
30 24 69 32 87 8 17 14 36 14 42 0 6 4 19 9 29 5 9 30 73 55 142 105 293 120
330 127 323 4 -5 21 -46 37 -93z"/>
</g>
</svg>
